<svg width="187" height="18" viewBox="0 0 187 18" fill="none" xmlns="http://www.w3.org/2000/svg">
<path d="M13.488 14.332V17.5H0.792V14.98L7.272 8.86C7.96 8.204 8.424 7.644 8.664 7.18C8.904 6.7 9.024 6.228 9.024 5.764C9.024 5.092 8.792 4.58 8.328 4.228C7.88 3.86 7.216 3.676 6.336 3.676C5.6 3.676 4.936 3.82 4.344 4.108C3.752 4.38 3.256 4.796 2.856 5.356L0.024 3.532C0.68 2.556 1.584 1.796 2.736 1.252C3.888 0.691999 5.208 0.412 6.696 0.412C7.944 0.412 9.032 0.619999 9.96 1.036C10.904 1.436 11.632 2.012 12.144 2.764C12.672 3.5 12.936 4.372 12.936 5.38C12.936 6.292 12.744 7.148 12.36 7.948C11.976 8.748 11.232 9.66 10.128 10.684L6.264 14.332H13.488ZM21.6683 17.788C20.3403 17.788 19.0523 17.612 17.8043 17.26C16.5723 16.892 15.5803 16.42 14.8283 15.844L16.1483 12.916C16.8683 13.444 17.7243 13.868 18.7163 14.188C19.7083 14.508 20.7003 14.668 21.6923 14.668C22.7963 14.668 23.6123 14.508 24.1403 14.188C24.6683 13.852 24.9323 13.412 24.9323 12.868C24.9323 12.468 24.7723 12.14 24.4523 11.884C24.1483 11.612 23.7483 11.396 23.2523 11.236C22.7723 11.076 22.1163 10.9 21.2843 10.708C20.0043 10.404 18.9563 10.1 18.1403 9.796C17.3243 9.492 16.6203 9.004 16.0283 8.332C15.4523 7.66 15.1643 6.764 15.1643 5.644C15.1643 4.668 15.4283 3.788 15.9563 3.004C16.4843 2.204 17.2763 1.572 18.3323 1.108C19.4043 0.644 20.7083 0.412 22.2443 0.412C23.3163 0.412 24.3643 0.539999 25.3883 0.795999C26.4123 1.052 27.3083 1.42 28.0763 1.9L26.8763 4.852C25.3243 3.972 23.7723 3.532 22.2203 3.532C21.1323 3.532 20.3243 3.708 19.7963 4.06C19.2843 4.412 19.0283 4.876 19.0283 5.452C19.0283 6.028 19.3243 6.46 19.9163 6.748C20.5243 7.02 21.4443 7.292 22.6763 7.564C23.9563 7.868 25.0043 8.172 25.8203 8.476C26.6363 8.78 27.3323 9.26 27.9083 9.916C28.5003 10.572 28.7963 11.46 28.7963 12.58C28.7963 13.54 28.5243 14.42 27.9803 15.22C27.4523 16.004 26.6523 16.628 25.5803 17.092C24.5083 17.556 23.2043 17.788 21.6683 17.788ZM34.6986 3.868H29.3226V0.699999H43.9626V3.868H38.5866V17.5H34.6986V3.868ZM53.9561 17.788C52.2121 17.788 50.6361 17.412 49.2281 16.66C47.8361 15.908 46.7401 14.876 45.9401 13.564C45.1561 12.236 44.7641 10.748 44.7641 9.1C44.7641 7.452 45.1561 5.972 45.9401 4.66C46.7401 3.332 47.8361 2.292 49.2281 1.54C50.6361 0.788 52.2121 0.412 53.9561 0.412C55.7001 0.412 57.2681 0.788 58.6601 1.54C60.0521 2.292 61.1481 3.332 61.9481 4.66C62.7481 5.972 63.1481 7.452 63.1481 9.1C63.1481 10.748 62.7481 12.236 61.9481 13.564C61.1481 14.876 60.0521 15.908 58.6601 16.66C57.2681 17.412 55.7001 17.788 53.9561 17.788ZM53.9561 14.476C54.9481 14.476 55.8441 14.252 56.6441 13.804C57.4441 13.34 58.0681 12.7 58.5161 11.884C58.9801 11.068 59.2121 10.14 59.2121 9.1C59.2121 8.06 58.9801 7.132 58.5161 6.316C58.0681 5.5 57.4441 4.868 56.6441 4.42C55.8441 3.956 54.9481 3.724 53.9561 3.724C52.9641 3.724 52.0681 3.956 51.2681 4.42C50.4681 4.868 49.8361 5.5 49.3721 6.316C48.9241 7.132 48.7001 8.06 48.7001 9.1C48.7001 10.14 48.9241 11.068 49.3721 11.884C49.8361 12.7 50.4681 13.34 51.2681 13.804C52.0681 14.252 52.9641 14.476 53.9561 14.476ZM76.7741 17.5L73.5341 12.82H73.3421H69.9581V17.5H66.0701V0.699999H73.3421C74.8301 0.699999 76.1181 0.947999 77.2061 1.444C78.3101 1.94 79.1581 2.644 79.7501 3.556C80.3421 4.468 80.6381 5.548 80.6381 6.796C80.6381 8.044 80.3341 9.124 79.7261 10.036C79.1341 10.932 78.2861 11.62 77.1821 12.1L80.9501 17.5H76.7741ZM76.7021 6.796C76.7021 5.852 76.3981 5.132 75.7901 4.636C75.1821 4.124 74.2941 3.868 73.1261 3.868H69.9581V9.724H73.1261C74.2941 9.724 75.1821 9.468 75.7901 8.956C76.3981 8.444 76.7021 7.724 76.7021 6.796ZM91.5482 11.548V17.5H87.6602V11.5L81.1562 0.699999H85.2842L89.7722 8.164L94.2602 0.699999H98.0762L91.5482 11.548ZM114.947 0.699999V17.5H111.059V10.612H103.427V17.5H99.5389V0.699999H103.427V7.324H111.059V0.699999H114.947ZM127.058 17.788C125.314 17.788 123.738 17.412 122.33 16.66C120.938 15.908 119.842 14.876 119.042 13.564C118.258 12.236 117.866 10.748 117.866 9.1C117.866 7.452 118.258 5.972 119.042 4.66C119.842 3.332 120.938 2.292 122.33 1.54C123.738 0.788 125.314 0.412 127.058 0.412C128.802 0.412 130.37 0.788 131.762 1.54C133.154 2.292 134.25 3.332 135.05 4.66C135.85 5.972 136.25 7.452 136.25 9.1C136.25 10.748 135.85 12.236 135.05 13.564C134.25 14.876 133.154 15.908 131.762 16.66C130.37 17.412 128.802 17.788 127.058 17.788ZM127.058 14.476C128.05 14.476 128.946 14.252 129.746 13.804C130.546 13.34 131.17 12.7 131.618 11.884C132.082 11.068 132.314 10.14 132.314 9.1C132.314 8.06 132.082 7.132 131.618 6.316C131.17 5.5 130.546 4.868 129.746 4.42C128.946 3.956 128.05 3.724 127.058 3.724C126.066 3.724 125.17 3.956 124.37 4.42C123.57 4.868 122.938 5.5 122.474 6.316C122.026 7.132 121.802 8.06 121.802 9.1C121.802 10.14 122.026 11.068 122.474 11.884C122.938 12.7 123.57 13.34 124.37 13.804C125.17 14.252 126.066 14.476 127.058 14.476ZM146.636 17.788C144.236 17.788 142.364 17.124 141.02 15.796C139.692 14.468 139.028 12.572 139.028 10.108V0.699999H142.916V9.964C142.916 12.972 144.164 14.476 146.66 14.476C147.876 14.476 148.804 14.116 149.444 13.396C150.084 12.66 150.404 11.516 150.404 9.964V0.699999H154.244V10.108C154.244 12.572 153.572 14.468 152.228 15.796C150.9 17.124 149.036 17.788 146.636 17.788ZM163.606 17.788C162.278 17.788 160.99 17.612 159.742 17.26C158.51 16.892 157.518 16.42 156.766 15.844L158.086 12.916C158.806 13.444 159.662 13.868 160.654 14.188C161.646 14.508 162.638 14.668 163.63 14.668C164.734 14.668 165.55 14.508 166.078 14.188C166.606 13.852 166.87 13.412 166.87 12.868C166.87 12.468 166.71 12.14 166.39 11.884C166.086 11.612 165.686 11.396 165.19 11.236C164.71 11.076 164.054 10.9 163.222 10.708C161.942 10.404 160.894 10.1 160.078 9.796C159.262 9.492 158.558 9.004 157.966 8.332C157.39 7.66 157.102 6.764 157.102 5.644C157.102 4.668 157.366 3.788 157.894 3.004C158.422 2.204 159.214 1.572 160.27 1.108C161.342 0.644 162.646 0.412 164.182 0.412C165.254 0.412 166.302 0.539999 167.326 0.795999C168.35 1.052 169.246 1.42 170.014 1.9L168.814 4.852C167.262 3.972 165.71 3.532 164.158 3.532C163.07 3.532 162.262 3.708 161.734 4.06C161.222 4.412 160.966 4.876 160.966 5.452C160.966 6.028 161.262 6.46 161.854 6.748C162.462 7.02 163.382 7.292 164.614 7.564C165.894 7.868 166.942 8.172 167.758 8.476C168.574 8.78 169.27 9.26 169.846 9.916C170.438 10.572 170.734 11.46 170.734 12.58C170.734 13.54 170.462 14.42 169.918 15.22C169.39 16.004 168.59 16.628 167.518 17.092C166.446 17.556 165.142 17.788 163.606 17.788ZM186.398 14.38V17.5H173.39V0.699999H186.086V3.82H177.254V7.468H185.054V10.492H177.254V14.38H186.398Z" fill="#222222"/>
</svg>
